REM DIRINDEX 1\2\6,1\2\7,1\2\8,1\3\9,1\3\10,1\3\11,1\4\12,1\4\13,1\4\14,1\5\15,1\5\16,1\5\17,1\5\18
REM DIRNAME folder01,folder02,folder03,folder04,folder05,folder06,folder07,folder08,folder09,folder10,folder11,folder12,folder13,folder14,folder15,folder16,folder17,folder18
TITLE ""
FILE "2Q_t_0737-0754.mp3" MP3
  TRACK 01 AUDIO
    TITLE "13:cjc019_3534"
    INDEX 01 00:00:00
  TRACK 02 AUDIO
    TITLE "0:"
    INDEX 01 00:01:09
  TRACK 03 AUDIO
    TITLE "14:cjc019_3535"
    INDEX 01 00:01:60
  TRACK 04 AUDIO
    TITLE "0:"
    INDEX 01 00:04:09
  TRACK 05 AUDIO
    TITLE "13:cjc019_3536"
    INDEX 01 00:04:64
  TRACK 06 AUDIO
    TITLE "0:"
    INDEX 01 00:06:04
  TRACK 07 AUDIO
    TITLE "14:cjc019_3537"
    INDEX 01 00:06:69
  TRACK 08 AUDIO
    TITLE "0:"
    INDEX 01 00:10:06
  TRACK 09 AUDIO
    TITLE "13:cjc019_3538"
    INDEX 01 00:10:61
  TRACK 10 AUDIO
    TITLE "0:"
    INDEX 01 00:11:72
  TRACK 11 AUDIO
    TITLE "14:cjc019_3539"
    INDEX 01 00:12:48
  TRACK 12 AUDIO
    TITLE "0:"
    INDEX 01 00:15:48
  TRACK 13 AUDIO
    TITLE "13:cjc019_3540"
    INDEX 01 00:16:30
  TRACK 14 AUDIO
    TITLE "0:"
    INDEX 01 00:17:27
  TRACK 15 AUDIO
    TITLE "14:cjc019_3541"
    INDEX 01 00:18:07
  TRACK 16 AUDIO
    TITLE "0:"
    INDEX 01 00:19:13
  TRACK 17 AUDIO
    TITLE "13:cjc019_3542"
    INDEX 01 00:19:71
  TRACK 18 AUDIO
    TITLE "0:"
    INDEX 01 00:21:21
  TRACK 19 AUDIO
    TITLE "14:cjc019_3543"
    INDEX 01 00:22:05
  TRACK 20 AUDIO
    TITLE "0:"
    INDEX 01 00:24:72
  TRACK 21 AUDIO
    TITLE "13:cjc019_3544"
    INDEX 01 00:25:52
  TRACK 22 AUDIO
    TITLE "0:"
    INDEX 01 00:27:04
  TRACK 23 AUDIO
    TITLE "14:cjc019_3545"
    INDEX 01 00:27:65
  TRACK 24 AUDIO
    TITLE "0:"
    INDEX 01 00:29:09
  TRACK 25 AUDIO
    TITLE "13:cjc019_3546"
    INDEX 01 00:29:66
  TRACK 26 AUDIO
    TITLE "0:"
    INDEX 01 00:31:12
  TRACK 27 AUDIO
    TITLE "14:cjc019_3547"
    INDEX 01 00:31:71
  TRACK 28 AUDIO
    TITLE "0:"
    INDEX 01 00:34:06
  TRACK 29 AUDIO
    TITLE "13:cjc019_3548"
    INDEX 01 00:34:53
  TRACK 30 AUDIO
    TITLE "0:"
    INDEX 01 00:36:09
  TRACK 31 AUDIO
    TITLE "14:cjc019_3549"
    INDEX 01 00:36:64
  TRACK 32 AUDIO
    TITLE "0:"
    INDEX 01 00:38:28
  TRACK 33 AUDIO
    TITLE "13:cjc019_3550"
    INDEX 01 00:39:03
  TRACK 34 AUDIO
    TITLE "0:"
    INDEX 01 00:40:30
  TRACK 35 AUDIO
    TITLE "14:cjc019_3551"
    INDEX 01 00:41:12
  TRACK 36 AUDIO
    TITLE "0:"
    INDEX 01 00:43:54
  TRACK 37 AUDIO
    TITLE "13:cjc019_3552"
    INDEX 01 00:44:26
  TRACK 38 AUDIO
    TITLE "0:"
    INDEX 01 00:45:39
  TRACK 39 AUDIO
    TITLE "14:cjc019_3553"
    INDEX 01 00:46:23
  TRACK 40 AUDIO
    TITLE "0:"
    INDEX 01 00:47:54
  TRACK 41 AUDIO
    TITLE "13:cjc019_3554"
    INDEX 01 00:48:36
  TRACK 42 AUDIO
    TITLE "0:"
    INDEX 01 00:49:57
  TRACK 43 AUDIO
    TITLE "14:cjc019_3555"
    INDEX 01 00:50:44
  TRACK 44 AUDIO
    TITLE "0:"
    INDEX 01 00:51:52
  TRACK 45 AUDIO
    TITLE "13:cjc019_3556"
    INDEX 01 00:52:36
  TRACK 46 AUDIO
    TITLE "0:"
    INDEX 01 00:53:55
  TRACK 47 AUDIO
    TITLE "14:cjc019_3557"
    INDEX 01 00:54:44
  TRACK 48 AUDIO
    TITLE "0:"
    INDEX 01 00:57:13
  TRACK 49 AUDIO
    TITLE "13:cjc019_3558"
    INDEX 01 00:57:72
  TRACK 50 AUDIO
    TITLE "0:"
    INDEX 01 00:59:18
  TRACK 51 AUDIO
    TITLE "14:cjc019_3559"
    INDEX 01 01:00:02
  TRACK 52 AUDIO
    TITLE "0:"
    INDEX 01 01:02:30
  TRACK 53 AUDIO
    TITLE "13:cjc019_3560"
    INDEX 01 01:03:10
  TRACK 54 AUDIO
    TITLE "0:"
    INDEX 01 01:04:48
  TRACK 55 AUDIO
    TITLE "14:cjc019_3561"
    INDEX 01 01:05:30
  TRACK 56 AUDIO
    TITLE "0:"
    INDEX 01 01:08:07
  TRACK 57 AUDIO
    TITLE "13:cjc019_3562"
    INDEX 01 01:08:54
  TRACK 58 AUDIO
    TITLE "0:"
    INDEX 01 01:09:73
  TRACK 59 AUDIO
    TITLE "14:cjc019_3563"
    INDEX 01 01:10:55
  TRACK 60 AUDIO
    TITLE "0:"
    INDEX 01 01:12:21
  TRACK 61 AUDIO
    TITLE "13:cjc019_3564"
    INDEX 01 01:13:00
  TRACK 62 AUDIO
    TITLE "0:"
    INDEX 01 01:14:31
  TRACK 63 AUDIO
    TITLE "14:cjc019_3565"
    INDEX 01 01:15:19
  TRACK 64 AUDIO
    TITLE "0:"
    INDEX 01 01:18:27
  TRACK 65 AUDIO
    TITLE "13:cjc019_3566"
    INDEX 01 01:19:11
  TRACK 66 AUDIO
    TITLE "0:"
    INDEX 01 01:20:63
  TRACK 67 AUDIO
    TITLE "14:cjc019_3567"
    INDEX 01 01:21:47
  TRACK 68 AUDIO
    TITLE "0:"
    INDEX 01 01:24:37
  TRACK 69 AUDIO
    TITLE "13:cjc019_3568"
    INDEX 01 01:25:19
  TRACK 70 AUDIO
    TITLE "0:"
    INDEX 01 01:26:54
  TRACK 71 AUDIO
    TITLE "14:cjc019_3569"
    INDEX 01 01:27:36
  TRACK 72 AUDIO
    TITLE "0:"
    INDEX 01 01:28:45
